<?xml version="1.0" encoding="utf-8"?>
<!-- Generator: Adobe Illustrator 18.1.1, SVG Export Plug-In . SVG Version: 6.00 Build 0)  -->
<svg version="1.1" id="Ebene_1" xmlns="http://www.w3.org/2000/svg" xmlns:xlink="http://www.w3.org/1999/xlink" x="0px" y="0px" height="145.2" width="464.4"
	 viewBox="0 0 464.4 145.2" enable-background="new 0 0 464.4 145.2" xml:space="preserve">
<g>
	<path d="M239.4,100.8V82.9h2.4v17.8H239.4z"/>
	<path d="M261.3,100.8l-6.6-10.9c-0.3-0.5-0.6-1.1-0.9-1.6c-0.3-0.5-0.5-1-0.7-1.4c-0.2-0.4-0.4-0.9-0.7-1.3
		c0.1,0.6,0.1,1.1,0.1,1.6c0,0.5,0.1,1,0.1,1.6c0,0.6,0,1.2,0,1.7l0.1,10.3h-2.5V82.9h2.8l6.8,11.4c0.3,0.5,0.5,0.9,0.7,1.3
		c0.2,0.4,0.4,0.8,0.6,1.2c0.2,0.4,0.4,0.8,0.6,1.2c-0.1-0.6-0.1-1.2-0.1-1.7c0-0.5-0.1-1.1-0.1-1.8s0-1.3,0-1.9l-0.1-9.7h2.4v17.8
		H261.3z"/>
	<path d="M282.7,84.7h-7.9v5.8h6.6v1.7h-6.6v8.5h-2.5V82.9h10.8L282.7,84.7z"/>
	<path d="M303.9,92.1c0,1.7-0.2,3.1-0.7,4.3c-0.5,1.1-1.2,2.1-2.3,3c-0.8,0.6-1.5,1-2.4,1.3c-0.8,0.3-1.8,0.4-2.8,0.4
		c-1.3,0-2.4-0.2-3.3-0.6c-1-0.4-1.8-1-2.5-1.7c-1.6-1.6-2.5-4-2.5-7.1c0-1.4,0.2-2.7,0.6-3.8c0.4-1.1,0.9-2.1,1.6-2.9
		c0.7-0.8,1.6-1.4,2.6-1.8c1-0.4,2.2-0.6,3.4-0.6c0.9,0,1.7,0.1,2.4,0.3s1.3,0.4,1.8,0.7c0.5,0.3,1,0.6,1.3,0.9
		c0.4,0.3,0.7,0.7,0.9,1c0.6,0.8,1.1,1.8,1.4,2.8C303.7,89.4,303.9,90.7,303.9,92.1z M301.1,92.4c0-1.3-0.1-2.4-0.2-3.4
		c-0.2-0.9-0.4-1.7-0.7-2.3c-0.4-0.7-0.9-1.2-1.7-1.7c-0.8-0.5-1.7-0.7-2.9-0.7c-1,0-1.8,0.2-2.6,0.6c-0.8,0.4-1.4,0.9-1.8,1.5
		c-0.4,0.6-0.6,1.3-0.8,2.1c-0.2,0.8-0.3,1.7-0.3,2.9c0,1.4,0.1,2.6,0.4,3.7c0.2,1.1,0.6,1.9,1,2.6c0.2,0.3,0.5,0.6,0.8,0.8
		c0.3,0.2,0.7,0.4,1.1,0.6c0.4,0.2,0.8,0.3,1.2,0.4c0.4,0.1,0.9,0.1,1.3,0.1c0.8,0,1.6-0.1,2.2-0.4c0.6-0.3,1.2-0.6,1.6-1.1
		c0.3-0.3,0.5-0.6,0.7-0.9c0.2-0.3,0.3-0.7,0.5-1.1c0.1-0.4,0.2-0.9,0.3-1.5C301.1,93.8,301.1,93.2,301.1,92.4z"/>
	<path d="M321.4,100.8c-0.2-0.3-0.4-0.7-0.7-1.2c-0.3-0.5-0.7-1-1.1-1.6c-0.4-0.6-1-1.2-1.5-1.9c-0.6-0.7-1.2-1.4-1.9-2.2
		c-0.4-0.4-0.8-0.7-1.1-0.9c-0.3-0.2-0.7-0.2-1.2-0.3v8h-2.5V82.9h4.8c0.7,0,1.3,0,1.8,0.1c0.5,0.1,1,0.1,1.4,0.2
		c0.4,0.1,0.8,0.2,1.1,0.4c0.3,0.1,0.6,0.3,0.8,0.5c0.2,0.2,0.5,0.4,0.7,0.6c0.2,0.2,0.5,0.5,0.6,0.8c0.2,0.3,0.3,0.7,0.5,1.1
		c0.1,0.4,0.2,0.8,0.2,1.3c0,0.7-0.1,1.4-0.4,2c-0.3,0.6-0.6,1.1-1.1,1.6c-0.5,0.4-1,0.8-1.7,1c-0.7,0.2-1.4,0.4-2.2,0.4h-0.3
		c0.5,0.3,0.9,0.7,1.2,1.1s0.6,0.7,0.8,0.9c0.2,0.2,0.5,0.5,0.8,1c0.4,0.5,0.8,1,1.2,1.5c0.4,0.6,0.8,1.1,1.3,1.6
		c0.4,0.5,0.8,1,1,1.3c0.2,0.3,0.4,0.5,0.4,0.5H321.4z M320.9,87.8c0-0.6-0.2-1.1-0.6-1.6c-0.4-0.5-0.9-0.9-1.4-1.1
		c-0.3-0.1-0.7-0.2-1.1-0.3c-0.4-0.1-0.9-0.1-1.5-0.1h-2.4v6.7h2.2c0.9,0,1.7-0.1,2.2-0.2c0.6-0.1,1.1-0.4,1.5-0.7
		c0.3-0.3,0.6-0.6,0.8-1.1C320.8,88.9,320.9,88.4,320.9,87.8z"/>
	<path d="M347.6,100.8l-1.2-13.1c0-0.3,0-0.6-0.1-0.9c0-0.4,0-0.7,0-1c0-0.3,0-0.7,0-1.1c0,0-0.1,0.2-0.1,0.5
		c-0.1,0.3-0.2,0.6-0.3,1.1c-0.1,0.5-0.3,0.9-0.4,1.2l-4.4,13.3h-2.1l-4.1-12.7c-0.3-1-0.7-2.2-1-3.5c0,0.5-0.1,1-0.1,1.3
		c0,0.4,0,0.7-0.1,1.1c0,0.4-0.1,0.7-0.1,1l-1.1,12.7h-2.4l1.8-17.8h3.6l3.7,11.6c0.3,0.9,0.5,1.9,0.8,3.1c0.1-0.3,0.1-0.6,0.2-0.9
		c0.1-0.3,0.1-0.6,0.2-0.9c0.1-0.4,0.2-0.7,0.3-1.1l3.9-11.9h3.6l1.8,17.8H347.6z"/>
	<path d="M369.2,100.8l-1.9-5.5h-7.7l-2,5.5h-2.5l6.8-17.8h3.2l6.8,17.8H369.2z M363.5,84.8l-3.2,8.7h6.4L363.5,84.8z"/>
	<path d="M387.5,84.7h-5.6v16h-2.4v-16H374v-1.8h13.6L387.5,84.7z"/>
	<path d="M392.7,100.8V82.9h2.4v17.8H392.7z"/>
	<path d="M419.2,92.1c0,1.7-0.2,3.1-0.7,4.3c-0.5,1.1-1.2,2.1-2.3,3c-0.8,0.6-1.5,1-2.4,1.3c-0.8,0.3-1.8,0.4-2.8,0.4
		c-1.3,0-2.4-0.2-3.3-0.6c-1-0.4-1.8-1-2.5-1.7c-1.6-1.6-2.5-4-2.5-7.1c0-1.4,0.2-2.7,0.6-3.8c0.4-1.1,0.9-2.1,1.6-2.9
		c0.7-0.8,1.6-1.4,2.6-1.8c1-0.4,2.2-0.6,3.4-0.6c0.9,0,1.7,0.1,2.4,0.3s1.3,0.4,1.8,0.7c0.5,0.3,1,0.6,1.3,0.9
		c0.4,0.3,0.7,0.7,0.9,1c0.6,0.8,1.1,1.8,1.4,2.8C419,89.4,419.2,90.7,419.2,92.1z M416.4,92.4c0-1.3-0.1-2.4-0.2-3.4
		c-0.2-0.9-0.4-1.7-0.7-2.3c-0.4-0.7-0.9-1.2-1.7-1.7c-0.8-0.5-1.7-0.7-2.9-0.7c-1,0-1.8,0.2-2.6,0.6c-0.8,0.4-1.4,0.9-1.8,1.5
		c-0.4,0.6-0.6,1.3-0.8,2.1c-0.2,0.8-0.3,1.7-0.3,2.9c0,1.4,0.1,2.6,0.4,3.7c0.2,1.1,0.6,1.9,1,2.6c0.2,0.3,0.5,0.6,0.8,0.8
		c0.3,0.2,0.7,0.4,1.1,0.6c0.4,0.2,0.8,0.3,1.2,0.4c0.4,0.1,0.9,0.1,1.3,0.1c0.8,0,1.6-0.1,2.2-0.4c0.6-0.3,1.2-0.6,1.6-1.1
		c0.3-0.3,0.5-0.6,0.7-0.9c0.2-0.3,0.3-0.7,0.5-1.1c0.1-0.4,0.2-0.9,0.3-1.5C416.4,93.8,416.4,93.2,416.4,92.4z"/>
	<path d="M437.8,100.8l-6.6-10.9c-0.3-0.5-0.6-1.1-0.9-1.6c-0.3-0.5-0.5-1-0.7-1.4c-0.2-0.4-0.4-0.9-0.7-1.3
		c0.1,0.6,0.1,1.1,0.1,1.6c0,0.5,0.1,1,0.1,1.6c0,0.6,0,1.2,0,1.7l0.1,10.3h-2.5V82.9h2.8l6.8,11.4c0.3,0.5,0.5,0.9,0.7,1.3
		c0.2,0.4,0.4,0.8,0.6,1.2c0.2,0.4,0.4,0.8,0.6,1.2c-0.1-0.6-0.1-1.2-0.1-1.7c0-0.5-0.1-1.1-0.1-1.8c0-0.7,0-1.3,0-1.9l-0.1-9.7h2.4
		v17.8H437.8z"/>
	<path d="M461.6,95.7c0,0.8-0.2,1.6-0.7,2.4c-0.5,0.8-1.2,1.4-2.1,1.9c-0.7,0.4-1.4,0.7-2.1,0.8c-0.7,0.2-1.6,0.3-2.5,0.3
		c-1.2,0-2.4-0.1-3.4-0.4c-1.1-0.3-2.1-0.7-3.1-1.2l1.1-1.7c0.9,0.5,1.7,0.9,2.6,1.2c0.9,0.2,1.8,0.4,2.9,0.4c0.8,0,1.4-0.1,1.9-0.2
		c0.5-0.1,0.9-0.3,1.4-0.6c1-0.6,1.5-1.5,1.5-2.5c0-1.6-1.2-2.7-3.7-3.3l-2.1-0.5c-0.9-0.2-1.7-0.5-2.2-0.7c-0.5-0.2-1-0.5-1.4-0.9
		c-0.9-0.8-1.3-1.8-1.3-2.9c0-0.8,0.2-1.5,0.5-2.1c0.3-0.6,0.8-1.2,1.3-1.6c0.6-0.4,1.3-0.8,2.1-1.1c0.8-0.3,1.7-0.4,2.7-0.4
		c2.2,0,4.2,0.6,6.2,1.7l-1.1,1.5c-0.5-0.3-1-0.5-1.4-0.7c-0.4-0.2-0.8-0.3-1.2-0.5c-0.4-0.1-0.8-0.2-1.2-0.3
		c-0.4-0.1-0.8-0.1-1.2-0.1c-1.3,0-2.3,0.3-3,0.8c-0.7,0.5-1.1,1.2-1.1,2.2c0,0.7,0.3,1.3,0.8,1.7c0.5,0.4,1.4,0.8,2.6,1.2l2.3,0.7
		c0.9,0.2,1.6,0.5,2.2,0.8c0.5,0.3,1,0.6,1.4,1c0.4,0.4,0.7,0.9,1,1.5C461.5,94.6,461.6,95.2,461.6,95.7z"/>
</g>
<g>
	<path d="M250.5,58.5h-11.6v-1.6l8.4-12.7c0.4-0.6,0.8-1.1,1.3-1.7c-0.7,0-1.4,0.1-2,0.1h-7.3l0.7-1.8H251v1.8L242.8,55
		c-0.3,0.5-0.7,1.1-1.2,1.7c0.7,0,1.2,0,1.7,0h7.8L250.5,58.5z"/>
	<path d="M259.9,58.5V40.7h10.7l-0.3,1.8h-8v5.9h6.7v1.8h-6.7v6.6h8.6v1.8H259.9z"/>
	<path d="M290.2,58.5l-6.3-10.9c-0.3-0.5-0.6-1.1-0.9-1.6c-0.3-0.5-0.5-1-0.7-1.4s-0.4-0.9-0.6-1.3c0.1,0.6,0.1,1.1,0.1,1.6
		c0,0.5,0.1,1,0.1,1.6c0,0.6,0,1.2,0,1.7l0.1,10.3h-2.4V40.7h2.7l6.5,11.4c0.2,0.5,0.5,0.9,0.7,1.3c0.2,0.4,0.4,0.8,0.6,1.2
		c0.2,0.4,0.3,0.8,0.5,1.2c-0.1-0.6-0.1-1.2-0.1-1.7c0-0.5-0.1-1.1-0.1-1.8c0-0.6,0-1.3,0-1.9l-0.1-9.7h2.3v17.8H290.2z"/>
	<path d="M313.8,42.5h-5.3v16h-2.3v-16h-5.3v-1.8h13L313.8,42.5z"/>
	<path d="M330.5,58.5c-0.2-0.3-0.4-0.7-0.7-1.2c-0.3-0.5-0.6-1-1.1-1.6c-0.4-0.6-0.9-1.2-1.5-1.9c-0.6-0.7-1.1-1.4-1.8-2.2
		c-0.4-0.4-0.7-0.7-1-0.9c-0.3-0.2-0.7-0.2-1.2-0.3v8H321V40.7h4.6c0.7,0,1.3,0,1.8,0.1c0.5,0.1,1,0.1,1.4,0.2
		c0.4,0.1,0.7,0.2,1,0.4c0.3,0.1,0.6,0.3,0.8,0.5c0.2,0.2,0.5,0.4,0.7,0.6c0.2,0.2,0.4,0.5,0.6,0.8c0.2,0.3,0.3,0.7,0.5,1.1
		c0.1,0.4,0.2,0.8,0.2,1.3c0,0.7-0.1,1.4-0.4,2c-0.2,0.6-0.6,1.1-1.1,1.6c-0.5,0.4-1,0.8-1.6,1c-0.6,0.2-1.3,0.4-2.1,0.4h-0.3
		c0.5,0.3,0.8,0.7,1.2,1.1c0.3,0.4,0.6,0.7,0.8,0.9c0.2,0.2,0.4,0.5,0.8,1c0.4,0.5,0.7,1,1.2,1.5c0.4,0.6,0.8,1.1,1.2,1.6
		c0.4,0.5,0.7,1,1,1.3c0.2,0.3,0.4,0.5,0.4,0.5H330.5z M330,45.6c0-0.6-0.2-1.1-0.5-1.6c-0.4-0.5-0.8-0.9-1.4-1.1
		c-0.3-0.1-0.7-0.2-1.1-0.3c-0.4-0.1-0.9-0.1-1.4-0.1h-2.3v6.7h2.1c0.9,0,1.6-0.1,2.1-0.2c0.6-0.1,1-0.4,1.4-0.7
		c0.3-0.3,0.6-0.6,0.7-1.1C329.9,46.7,330,46.2,330,45.6z"/>
	<path d="M354.5,53.4c0,1.1-0.1,1.9-0.3,2.5c-0.2,0.6-0.6,1.1-1.2,1.6c-0.6,0.5-1.3,0.8-2.1,1c-0.8,0.2-1.8,0.3-3,0.3
		c-1.5,0-2.7-0.2-3.6-0.6c-0.9-0.4-1.6-1.1-2.2-2c-0.3-0.4-0.4-0.9-0.5-1.4c-0.1-0.5-0.1-1-0.1-1.4V40.7h2.3v12c0,0.5,0,0.9,0.1,1.4
		c0,0.5,0.1,0.9,0.3,1.2c0.1,0.2,0.2,0.4,0.4,0.6c0.2,0.2,0.4,0.4,0.7,0.6c0.3,0.2,0.7,0.3,1.1,0.4c0.4,0.1,1,0.2,1.6,0.2
		c0.8,0,1.5-0.1,2.1-0.3c0.6-0.2,1-0.5,1.3-0.8c0.3-0.4,0.5-0.8,0.6-1.2c0.1-0.4,0.1-0.9,0.1-1.5V40.7h2.3V53.4z"/>
	<path d="M380.7,58.5l-1.1-13.1c0-0.3,0-0.6-0.1-0.9c0-0.4,0-0.7,0-1c0-0.3,0-0.7,0-1.1c0,0-0.1,0.2-0.1,0.5
		c-0.1,0.3-0.2,0.6-0.3,1.1c-0.1,0.5-0.2,0.9-0.4,1.2l-4.2,13.3h-2l-3.9-12.7c-0.3-1-0.6-2.2-1-3.5c0,0.5-0.1,1-0.1,1.3
		c0,0.4,0,0.7-0.1,1.1c0,0.4-0.1,0.7-0.1,1l-1.1,12.7H364l1.7-17.8h3.4l3.6,11.6c0.3,0.9,0.5,1.9,0.8,3.1c0.1-0.3,0.1-0.6,0.2-0.9
		c0.1-0.3,0.1-0.6,0.2-0.9c0.1-0.4,0.2-0.7,0.3-1.1l3.7-11.9h3.5l1.7,17.8H380.7z"/>
</g>
<g>
	<path d="M248.5,142.3H246l-6.9-17.8h2.7l4.3,11.5c0.1,0.4,0.3,0.8,0.4,1.2c0.1,0.4,0.3,0.8,0.4,1.2c0.1,0.4,0.2,0.7,0.3,1
		c0.1,0.3,0.1,0.5,0.1,0.6c0.1-0.2,0.2-0.7,0.4-1.3c0.2-0.6,0.5-1.4,0.9-2.4l4.4-11.8h2.5L248.5,142.3z"/>
	<path d="M261.4,142.3v-17.8h11.2l-0.3,1.8h-8.4v5.9h7v1.8h-7v6.6h9v1.8H261.4z"/>
	<path d="M289.6,142.3c-0.2-0.3-0.4-0.7-0.7-1.2c-0.3-0.5-0.7-1-1.1-1.6c-0.4-0.6-1-1.2-1.5-1.9c-0.6-0.7-1.2-1.4-1.9-2.2
		c-0.4-0.4-0.8-0.7-1.1-0.9c-0.3-0.2-0.7-0.2-1.2-0.3v8h-2.5v-17.8h4.8c0.7,0,1.3,0,1.8,0.1c0.5,0.1,1,0.1,1.4,0.2
		c0.4,0.1,0.8,0.2,1.1,0.4c0.3,0.1,0.6,0.3,0.8,0.5c0.2,0.2,0.5,0.4,0.7,0.6c0.2,0.2,0.5,0.5,0.6,0.8c0.2,0.3,0.3,0.7,0.5,1.1
		c0.1,0.4,0.2,0.8,0.2,1.3c0,0.7-0.1,1.4-0.4,2c-0.3,0.6-0.6,1.1-1.1,1.6c-0.5,0.4-1,0.8-1.7,1c-0.7,0.2-1.4,0.4-2.2,0.4h-0.3
		c0.5,0.3,0.9,0.7,1.2,1.1c0.3,0.4,0.6,0.7,0.8,0.9c0.2,0.2,0.5,0.5,0.8,1c0.4,0.5,0.8,1,1.2,1.5c0.4,0.6,0.8,1.1,1.3,1.6
		c0.4,0.5,0.8,1,1,1.3c0.2,0.3,0.4,0.5,0.4,0.5H289.6z M289,129.3c0-0.6-0.2-1.1-0.6-1.6c-0.4-0.5-0.9-0.9-1.4-1.1
		c-0.3-0.1-0.7-0.2-1.1-0.3c-0.4-0.1-0.9-0.1-1.5-0.1h-2.4v6.7h2.2c0.9,0,1.7-0.1,2.2-0.2c0.6-0.1,1.1-0.4,1.5-0.7
		c0.3-0.3,0.6-0.6,0.8-1.1C289,130.5,289,129.9,289,129.3z"/>
	<path d="M310.4,142.3l-1.9-5.5h-7.7l-2,5.5h-2.5l6.8-17.8h3.2l6.8,17.8H310.4z M304.7,126.3l-3.2,8.7h6.4L304.7,126.3z"/>
	<path d="M328.9,142.3c-0.2-0.3-0.4-0.7-0.7-1.2c-0.3-0.5-0.7-1-1.1-1.6c-0.4-0.6-1-1.2-1.5-1.9c-0.6-0.7-1.2-1.4-1.9-2.2
		c-0.4-0.4-0.8-0.7-1.1-0.9c-0.3-0.2-0.7-0.2-1.2-0.3v8H319v-17.8h4.8c0.7,0,1.3,0,1.8,0.1c0.5,0.1,1,0.1,1.4,0.2
		c0.4,0.1,0.8,0.2,1.1,0.4c0.3,0.1,0.6,0.3,0.8,0.5c0.2,0.2,0.5,0.4,0.7,0.6c0.2,0.2,0.5,0.5,0.6,0.8c0.2,0.3,0.3,0.7,0.5,1.1
		c0.1,0.4,0.2,0.8,0.2,1.3c0,0.7-0.1,1.4-0.4,2c-0.3,0.6-0.6,1.1-1.1,1.6c-0.5,0.4-1,0.8-1.7,1c-0.7,0.2-1.4,0.4-2.2,0.4h-0.3
		c0.5,0.3,0.9,0.7,1.2,1.1c0.3,0.4,0.6,0.7,0.8,0.9c0.2,0.2,0.5,0.5,0.8,1c0.4,0.5,0.8,1,1.2,1.5c0.4,0.6,0.8,1.1,1.3,1.6
		c0.4,0.5,0.8,1,1,1.3c0.2,0.3,0.4,0.5,0.4,0.5H328.9z M328.4,129.3c0-0.6-0.2-1.1-0.6-1.6c-0.4-0.5-0.9-0.9-1.4-1.1
		c-0.3-0.1-0.7-0.2-1.1-0.3c-0.4-0.1-0.9-0.1-1.5-0.1h-2.4v6.7h2.2c0.9,0,1.7-0.1,2.2-0.2c0.6-0.1,1.1-0.4,1.5-0.7
		c0.3-0.3,0.6-0.6,0.8-1.1C328.3,130.5,328.4,129.9,328.4,129.3z"/>
	<path d="M351.7,137.4c0,1-0.3,1.9-0.8,2.7c-0.6,0.8-1.3,1.4-2.4,1.7c-0.3,0.1-0.5,0.2-0.8,0.2c-0.3,0.1-0.6,0.1-0.9,0.2
		c-0.4,0-0.8,0.1-1.3,0.1c-0.5,0-1.1,0-1.9,0h-5.3v-17.8h3c1,0,1.9,0,2.5,0c0.7,0,1.2,0,1.7,0.1c0.4,0,0.8,0.1,1.1,0.1
		c0.3,0.1,0.6,0.1,0.8,0.2c1.1,0.3,1.9,0.8,2.5,1.6c0.6,0.7,1,1.6,1,2.5c0,0.9-0.3,1.7-1,2.4c-0.6,0.7-1.5,1.2-2.7,1.5
		c0.6,0.1,1.2,0.2,1.6,0.4c0.4,0.1,0.8,0.3,1.1,0.6c0.7,0.5,1.2,1,1.4,1.7C351.5,136.1,351.7,136.7,351.7,137.4z M348.1,129.2
		c0-0.7-0.2-1.3-0.6-1.8c-0.4-0.5-1-0.8-1.7-1c-0.3-0.1-0.6-0.1-0.9-0.1c-0.3,0-0.8,0-1.3,0h-2.9v5.8h3.5c0.6,0,1,0,1.4-0.1
		c0.4,0,0.7-0.1,1-0.2c0.3-0.1,0.5-0.3,0.7-0.5c0.2-0.2,0.3-0.4,0.5-0.7C348,130.2,348.1,129.7,348.1,129.2z M349.1,137.2
		c0-0.8-0.2-1.5-0.7-2.1c-0.5-0.6-1.1-1-1.8-1.1c-0.3-0.1-0.6-0.1-1-0.1c-0.4,0-0.9-0.1-1.4-0.1h-3.6v6.7h4.3c1.5,0,2.6-0.3,3.2-0.9
		C348.8,139.1,349.1,138.3,349.1,137.2z"/>
	<path d="M359.1,142.3v-17.8h11.2l-0.3,1.8h-8.4v5.9h7v1.8h-7v6.6h9v1.8H359.1z"/>
	<path d="M377.3,142.3v-17.8h2.4v17.8H377.3z"/>
	<path d="M399.4,126.3h-5.6v16h-2.4v-16h-5.5v-1.8h13.6L399.4,126.3z"/>
	<path d="M417.9,137.1c0,1.1-0.1,1.9-0.3,2.5c-0.2,0.6-0.6,1.1-1.2,1.6c-0.6,0.5-1.4,0.8-2.2,1c-0.8,0.2-1.9,0.3-3.1,0.3
		c-1.6,0-2.9-0.2-3.8-0.6c-0.9-0.4-1.7-1.1-2.3-1.9c-0.3-0.4-0.4-0.9-0.5-1.4c-0.1-0.5-0.1-1-0.1-1.4v-12.8h2.4v12
		c0,0.5,0,0.9,0.1,1.4c0,0.5,0.1,0.9,0.3,1.2c0.1,0.2,0.2,0.4,0.4,0.6c0.2,0.2,0.4,0.4,0.8,0.6c0.3,0.2,0.7,0.3,1.2,0.4
		c0.5,0.1,1,0.2,1.7,0.2c0.9,0,1.6-0.1,2.2-0.3c0.6-0.2,1.1-0.5,1.4-0.8c0.3-0.4,0.6-0.8,0.6-1.2c0.1-0.4,0.1-0.9,0.1-1.5v-12.4h2.4
		V137.1z"/>
	<path d="M437.2,142.3l-6.6-10.9c-0.3-0.5-0.6-1.1-0.9-1.6c-0.3-0.5-0.5-1-0.7-1.4c-0.2-0.4-0.4-0.9-0.7-1.3
		c0.1,0.6,0.1,1.1,0.1,1.6c0,0.5,0.1,1,0.1,1.6c0,0.6,0,1.2,0,1.7l0.1,10.3h-2.5v-17.8h2.8l6.8,11.4c0.3,0.5,0.5,0.9,0.7,1.3
		c0.2,0.4,0.4,0.8,0.6,1.2c0.2,0.4,0.4,0.8,0.6,1.2c-0.1-0.6-0.1-1.2-0.1-1.7c0-0.5-0.1-1.1-0.1-1.8c0-0.7,0-1.3,0-1.9l-0.1-9.7h2.4
		v17.8H437.2z"/>
	<path d="M461.8,141.2c-0.7,0.4-1.6,0.7-2.6,1c-1,0.2-2.1,0.4-3.1,0.4c-2.6,0-4.7-0.7-6.3-2.2c-0.9-0.8-1.5-1.8-1.9-2.9
		c-0.4-1.1-0.6-2.4-0.6-4c0-1.7,0.3-3.2,0.8-4.4c0.5-1.2,1.3-2.3,2.4-3.1c1.4-1.1,3.2-1.7,5.4-1.7c2.2,0,4,0.6,5.6,1.7l-1.1,1.3
		c-0.8-0.5-1.6-0.9-2.3-1.1c-0.7-0.2-1.4-0.3-2.2-0.3c-1.2,0-2.2,0.2-3.1,0.7c-0.9,0.5-1.6,1.3-2,2.3c-0.5,1.3-0.8,2.8-0.8,4.5
		c0,1.2,0.1,2.2,0.4,3.2c0.2,0.9,0.6,1.7,1.1,2.3c0.2,0.3,0.5,0.6,0.9,0.8c0.4,0.2,0.8,0.4,1.2,0.6c0.4,0.2,0.9,0.3,1.4,0.4
		c0.5,0.1,1,0.1,1.5,0.1c1.3,0,2.4-0.2,3.2-0.7v-5.4h-4.1l-0.5-1.8h6.9V141.2z"/>
</g>
<g>
	<path d="M417.5,42.3h-7.6v5.9h6.3v1.7h-6.3v8.5h-2.4V40.5h10.3L417.5,42.3z"/>
	<path d="M438,53.2c0,1.1-0.1,1.9-0.3,2.5c-0.2,0.6-0.6,1.1-1.2,1.6c-0.6,0.5-1.3,0.8-2.1,1c-0.8,0.2-1.8,0.3-3,0.3
		c-1.5,0-2.7-0.2-3.6-0.6c-0.9-0.4-1.6-1.1-2.2-2c-0.3-0.4-0.4-0.9-0.5-1.4c-0.1-0.5-0.1-1-0.1-1.4V40.5h2.3v12c0,0.5,0,0.9,0.1,1.4
		c0,0.5,0.1,0.9,0.3,1.2c0.1,0.2,0.2,0.4,0.4,0.6c0.2,0.2,0.4,0.4,0.7,0.6c0.3,0.2,0.7,0.3,1.1,0.4c0.4,0.1,1,0.2,1.6,0.2
		c0.8,0,1.5-0.1,2.1-0.3c0.6-0.2,1-0.5,1.3-0.8c0.3-0.4,0.5-0.8,0.6-1.2c0.1-0.4,0.1-0.9,0.1-1.5V40.5h2.3V53.2z M430,38.1
		c0,0.4-0.1,0.7-0.4,1c-0.3,0.3-0.6,0.4-1,0.4c-0.4,0-0.8-0.1-1.1-0.4c-0.3-0.3-0.4-0.6-0.4-1c0-0.4,0.1-0.7,0.4-0.9
		c0.3-0.3,0.6-0.4,1-0.4c0.4,0,0.8,0.1,1.1,0.4C429.9,37.4,430,37.7,430,38.1z M435.9,38.1c0,0.4-0.1,0.7-0.4,1
		c-0.3,0.3-0.6,0.4-1,0.4c-0.4,0-0.8-0.1-1.1-0.4c-0.3-0.3-0.4-0.6-0.4-1c0-0.4,0.1-0.7,0.4-0.9c0.3-0.3,0.6-0.4,1.1-0.4
		c0.4,0,0.7,0.1,1,0.4C435.8,37.4,435.9,37.7,435.9,38.1z"/>
	<path d="M457.8,58.4c-0.2-0.3-0.4-0.7-0.7-1.2c-0.3-0.5-0.6-1-1.1-1.6c-0.4-0.6-0.9-1.2-1.5-1.9c-0.6-0.7-1.2-1.4-1.8-2.2
		c-0.4-0.4-0.7-0.7-1-0.9c-0.3-0.2-0.7-0.2-1.2-0.3v8h-2.3V40.5h4.6c0.7,0,1.3,0,1.8,0.1c0.5,0.1,1,0.1,1.4,0.2
		c0.4,0.1,0.7,0.2,1,0.4c0.3,0.1,0.6,0.3,0.8,0.5c0.2,0.2,0.5,0.4,0.7,0.6c0.2,0.2,0.4,0.5,0.6,0.8c0.2,0.3,0.3,0.7,0.5,1.1
		c0.1,0.4,0.2,0.8,0.2,1.3c0,0.7-0.1,1.4-0.4,2c-0.2,0.6-0.6,1.1-1.1,1.6c-0.5,0.4-1,0.8-1.6,1c-0.6,0.2-1.3,0.4-2.1,0.4h-0.3
		c0.5,0.3,0.8,0.7,1.2,1.1c0.3,0.4,0.6,0.7,0.8,0.9c0.2,0.2,0.4,0.5,0.8,1c0.4,0.5,0.7,1,1.2,1.5c0.4,0.6,0.8,1.1,1.2,1.6
		c0.4,0.5,0.7,1,1,1.3c0.2,0.3,0.4,0.5,0.4,0.5H457.8z M457.3,45.4c0-0.6-0.2-1.1-0.5-1.6c-0.4-0.5-0.8-0.9-1.4-1.1
		c-0.3-0.1-0.7-0.2-1.1-0.3c-0.4-0.1-0.9-0.1-1.4-0.1h-2.3V49h2.1c0.9,0,1.6-0.1,2.1-0.2c0.6-0.1,1-0.4,1.4-0.7
		c0.3-0.3,0.6-0.6,0.7-1.1C457.2,46.5,457.3,46,457.3,45.4z"/>
</g>
<rect x="69.8" y="2.3" fill="#C6C6C6" width="35" height="35"/>
<rect x="2" y="60.6" fill="#006FB9" width="35" height="35"/>
<rect x="69.8" y="60.6" fill="#006FB9" width="35" height="35"/>
<rect x="121" y="60.6" fill="#006FB9" width="35" height="35"/>
<rect x="172" y="60.6" fill="#006FB9" width="35" height="35"/>
<rect x="18.7" y="107.1" fill="#006FB9" width="35" height="35"/>
<rect x="69.8" y="107.1" fill="#006FB9" width="35" height="35"/>
<rect x="146.5" y="107.1" fill="#006FB9" width="35" height="35"/>
</svg>
